<svg width="18" height="18" viewBox="0 0 18 18" fill="none" xmlns="http://www.w3.org/2000/svg">
<path fill-rule="evenodd" clip-rule="evenodd" d="M13.1355 13.9974C11.815 15.1215 10.1033 15.8 8.23317 15.8C4.05422 15.8 0.666504 12.4123 0.666504 8.23332C0.666504 4.05437 4.05422 0.666656 8.23317 0.666656C12.4121 0.666656 15.7998 4.05437 15.7998 8.23332C15.7998 10.0921 15.1296 11.7944 14.0175 13.1116L17.6495 16.7437L16.7657 17.6275L13.1355 13.9974ZM14.5498 8.23332C14.5498 11.7219 11.7218 14.55 8.23317 14.55C4.74457 14.55 1.9165 11.7219 1.9165 8.23332C1.9165 4.74472 4.74457 1.91666 8.23317 1.91666C11.7218 1.91666 14.5498 4.74472 14.5498 8.23332Z" fill="white" fill-opacity="0.7"/>
</svg>
